<?xml version="1.0" encoding="utf-8"?>
<svg version="1.1" xmlns="http://www.w3.org/2000/svg" x="0px" y="0px"
	 viewBox="0 0 1280 2228" style="enable-background:new 0 0 1280 2228;" xml:space="preserve">
<style type="text/css">
	.st0{fill:#0A0A0A;}
	.st1{fill:#E7E9BB;}
	.st2{font-family:'Staatliches';}
	.st3{font-size:100px;}
	.st4{letter-spacing:0.15em;}
</style>
<g id="Background">
	<rect class="st0" width="1280" height="2228"/>
</g>
<g id="Content">
	<!-- Car Icon - Side view -->
	<g transform="translate(640, 980)">
		<path class="st1" d="M-80,-20 L-60,-40 L-20,-40 L0,-35 L20,-40 L60,-40 L80,-20 L80,0 L70,10 L70,20 L60,20 L55,10 L-55,10 L-60,20 L-70,20 L-70,10 L-80,0 Z M-70,-20 L-55,-30 L-30,-30 L-20,-20 Z M20,-20 L30,-30 L55,-30 L70,-20 Z M-65,0 C-65,5.52 -69.48,10 -75,10 C-80.52,10 -85,5.52 -85,0 C-85,-5.52 -80.52,-10 -75,-10 C-69.48,-10 -65,-5.52 -65,0 Z M85,0 C85,5.52 80.52,10 75,10 C69.48,10 65,5.52 65,0 C65,-5.52 69.48,-10 75,-10 C80.52,-10 85,-5.52 85,0 Z M-50,-15 L-10,-15 L-10,-25 L-45,-25 Z M10,-15 L50,-15 L45,-25 L10,-25 Z"/>
	</g>
	
	<!-- DCA Text -->
	<text transform="matrix(1 0 0 1 640 1120)" class="st1 st2 st3 st4" text-anchor="middle">DCA</text>
</g>
</svg>
